# xmcd
#
# Track frame offsets: 
#        150
#        6632
#        28992
#        47097
#        71270
#        98917
#        125280
#        143945
#        165690
#        185975
#        209792
#        227022
#
# Disc length: 3558 seconds
#
# Revision: 1
# Processed by: cddbd v1.5.2PL0 Copyright (c) Steve Scherf et al.
# Submitted via: ExactAudioCopy v0.99pb5
#
DISCID=b60de40c
DTITLE=Me'Shell Ndegéocello - Peace Beyond Passion
DYEAR=1996
DGENRE=Jazz
TTITLE0=The Womb
TTITLE1=The Way
TTITLE2=Deuteronomy: Niggerman
TTITLE3=Ecclesiastes: Free My Heart
TTITLE4=Leviticus: Faggot
TTITLE5=Mary Magdalene
TTITLE6=God Shiva
TTITLE7=Who Is He And What Is He To You
TTITLE8=Stay
TTITLE9=Bittersweet
TTITLE10=A Tear And A Smile
TTITLE11=Make Me Wanna Holler
EXTD=YEAR: 1996
EXTT0=
EXTT1=
EXTT2=
EXTT3=
EXTT4=
EXTT5=
EXTT6=
EXTT7=
EXTT8=
EXTT9=
EXTT10=
EXTT11=
PLAYORDER=
